<svg width="64" height="64" viewBox="0 0 64 64" xmlns="http://www.w3.org/2000/svg">
  <defs>
    <linearGradient id="bg" x1="0" y1="0" x2="64" y2="64" gradientUnits="userSpaceOnUse">
      <stop offset="0" stop-color="#e0242a"/>
      <stop offset="1" stop-color="#138a3e"/>
    </linearGradient>
    <linearGradient id="sheen" x1="0" y1="0" x2="0" y2="64" gradientUnits="userSpaceOnUse">
      <stop offset="0" stop-color="#ffffff" stop-opacity="0.22"/>
      <stop offset="0.55" stop-color="#ffffff" stop-opacity="0"/>
    </linearGradient>
  </defs>
  <rect width="64" height="64" rx="15" fill="#070b14"/>
  <rect width="64" height="64" rx="15" fill="url(#bg)"/>
  <rect width="64" height="64" rx="15" fill="url(#sheen)"/>
  <g>
    <!-- handles -->
    <path d="M22 17 q-8 0 -8 7 q0 5 7 5" fill="none" stroke="#fff" stroke-width="2.8" stroke-linecap="round"/>
    <path d="M42 17 q8 0 8 7 q0 5 -7 5" fill="none" stroke="#fff" stroke-width="2.8" stroke-linecap="round"/>
    <!-- cup -->
    <path d="M21 15 H43 V23 A11 11 0 0 1 21 23 Z" fill="#fff"/>
    <!-- stem -->
    <rect x="30" y="33" width="4" height="7" fill="#fff"/>
    <!-- base -->
    <rect x="27" y="40" width="10" height="4" rx="1" fill="#fff"/>
    <rect x="24.5" y="44" width="15" height="4.5" rx="2" fill="#fff"/>
  </g>
</svg>
